<?xml version="1.0" standalone="no"?>
<!DOCTYPE svg PUBLIC "-//W3C//DTD SVG 20010904//EN"
 "http://www.w3.org/TR/2001/REC-SVG-20010904/DTD/svg10.dtd">
<svg version="1.0" xmlns="http://www.w3.org/2000/svg"
 width="373.000000pt" height="373.000000pt" viewBox="0 0 373.000000 373.000000"
 preserveAspectRatio="xMidYMid meet">
<metadata>
Created by potrace 1.14, written by Peter Selinger 2001-2017
</metadata>
<g transform="translate(0.000000,373.000000) scale(0.100000,-0.100000)"
fill="#000000" stroke="none">
<path d="M1697 3070 c-10 -16 -15 -30 -11 -30 4 0 -3 -11 -16 -25 -13 -14 -21
-27 -18 -31 3 -3 -4 -16 -17 -30 -12 -13 -35 -43 -51 -66 -33 -48 -59 -80 -91
-114 -13 -13 -23 -31 -23 -40 0 -10 -3 -15 -6 -11 -9 9 -96 -128 -134 -209
-38 -82 -75 -176 -72 -186 1 -3 -5 -9 -13 -11 -8 -4 -33 13 -59 40 -25 25 -46
43 -46 39 0 -4 -10 3 -22 15 -25 23 -124 82 -148 87 -8 2 -21 4 -27 4 -7 1
-13 5 -13 9 0 4 -17 9 -37 12 -114 15 -242 64 -335 128 -34 25 -43 24 -19 0
24 -24 81 -137 73 -145 -3 -3 -1 -6 5 -6 6 0 13 -10 16 -22 3 -13 11 -41 17
-63 6 -22 13 -51 16 -65 3 -14 11 -47 19 -75 28 -101 29 -131 5 -148 -14 -10
-31 -13 -48 -8 -15 4 -34 7 -42 6 -8 -1 -20 3 -27 7 -6 5 -14 5 -17 0 -6 -10
-48 -8 -65 3 -6 3 -11 2 -11 -3 0 -5 -19 -10 -43 -11 -58 -2 -98 -9 -137 -23
-8 -3 -43 -16 -78 -28 -34 -13 -65 -27 -68 -32 -7 -11 45 -58 64 -58 6 0 12
-4 12 -10 0 -5 7 -10 15 -10 8 0 15 -4 15 -8 0 -5 12 -15 28 -23 30 -15 156
-114 217 -170 40 -38 54 -49 121 -104 47 -38 57 -44 179 -105 55 -27 108 -50
117 -50 9 0 19 -4 22 -9 5 -8 55 -21 99 -26 9 -2 18 -3 20 -5 9 -7 226 -13
265 -6 17 3 32 1 32 -4 0 -7 -28 -13 -130 -26 -14 -2 -108 -4 -210 -5 -102 -1
-198 -6 -215 -11 -16 -5 -43 -12 -58 -14 -31 -4 -231 -113 -223 -121 9 -10 86
-9 86 0 0 5 6 4 14 -2 8 -6 28 -13 45 -14 17 -1 31 -5 31 -9 0 -5 9 -8 20 -8
11 0 20 -4 20 -8 0 -4 17 -14 38 -21 20 -8 56 -27 80 -43 23 -16 42 -26 42
-22 0 3 7 1 15 -6 8 -7 15 -9 15 -4 0 4 7 -1 15 -12 8 -10 15 -16 15 -11 0 4
19 -2 42 -15 35 -18 60 -21 138 -21 149 -1 207 9 279 44 97 48 201 154 201
204 0 9 5 13 10 10 6 -3 10 -1 10 5 0 7 18 -8 40 -31 22 -23 41 -41 43 -38 2
2 14 19 26 37 12 17 28 32 35 32 8 0 26 -17 42 -37 39 -52 106 -124 111 -119
2 2 15 -6 28 -18 33 -30 49 -42 58 -43 4 0 17 -3 28 -6 10 -3 21 -5 23 -4 1 1
10 -4 19 -12 10 -7 17 -10 17 -7 0 4 9 2 19 -4 14 -7 21 -6 24 3 4 9 8 9 15
-2 8 -11 30 -14 84 -13 102 3 128 5 128 12 0 3 12 7 28 8 15 1 55 14 90 29 58
24 67 26 105 14 133 -39 176 -44 352 -44 309 0 442 19 520 73 100 70 91 140
-26 199 -34 17 -70 31 -79 31 -9 0 -21 5 -28 12 -7 7 -12 9 -12 6 0 -4 -15 -2
-32 3 -40 12 -100 21 -150 23 -72 3 -57 15 38 31 54 9 104 35 116 60 21 46
-22 99 -88 111 -16 3 -30 7 -32 9 -3 2 140 37 206 50 9 2 17 4 17 5 0 2 15 5
54 14 30 7 81 54 81 76 0 22 -47 65 -90 82 -62 26 -167 46 -265 52 -108 7
-102 6 -85 15 8 5 29 11 46 14 35 5 103 35 121 53 36 35 8 105 -59 146 -45 27
-47 38 -10 39 67 2 111 28 123 72 14 52 -39 81 -186 103 -42 7 -185 6 -215 0
-14 -3 -38 -9 -55 -12 -43 -9 -81 -39 -94 -74 -9 -26 -7 -33 11 -50 12 -11 25
-21 30 -21 13 -2 21 -5 48 -16 l25 -11 -25 -6 c-92 -23 -147 -26 -136 -8 5 8
18 79 19 105 1 9 4 17 7 17 4 0 7 6 8 13 4 55 64 234 82 247 17 12 39 69 30
75 -6 3 -10 1 -10 -5 0 -6 -4 -8 -10 -5 -5 3 -10 1 -10 -5 0 -8 -35 -28 -60
-35 -3 0 -15 -6 -27 -13 -13 -7 -23 -10 -23 -6 0 3 -7 0 -16 -7 -9 -7 -23 -14
-32 -15 -8 -2 -18 -6 -21 -11 -3 -4 -17 -9 -31 -10 -65 -5 -122 -15 -160 -29
-3 -1 -15 -5 -27 -9 -13 -4 -23 -11 -23 -16 0 -5 -7 -9 -15 -9 -8 0 -24 -10
-36 -22 -12 -13 -18 -16 -14 -8 4 8 -1 6 -12 -5 -12 -11 -37 -33 -57 -49 -19
-16 -33 -33 -30 -37 3 -5 1 -9 -5 -9 -6 0 -22 -12 -37 -26 -27 -28 -41 -22
-45 16 -4 29 -6 35 -22 74 -9 21 -17 42 -17 47 0 29 -154 289 -199 336 -11 12
-21 25 -21 28 0 3 -10 16 -22 29 -37 38 -58 66 -58 75 0 5 -6 16 -13 23 -17
16 -68 97 -72 112 -9 35 -18 56 -24 56 -4 0 -15 -13 -24 -30z m813 -1615 c9
-8 24 -15 33 -15 9 0 19 -5 23 -12 4 -6 3 -8 -4 -4 -6 3 -13 3 -15 -1 -6 -9
-243 -8 -302 1 -22 4 -57 8 -78 10 -79 7 -46 16 59 17 60 0 118 2 129 5 11 2
32 5 48 6 15 0 27 4 27 8 0 13 63 1 80 -15z"/>
<path d="M1662 1213 c-32 -15 -64 -75 -64 -117 0 -55 61 -105 122 -101 37 2
85 30 97 57 5 13 9 43 8 67 -4 78 -91 129 -163 94z"/>
</g>
</svg>
